<?xml version="1.0" encoding="UTF-8"?>
<svg width="24px" height="24px" viewBox="0 0 24 24" version="1.1" xmlns="http://www.w3.org/2000/svg" xmlns:xlink="http://www.w3.org/1999/xlink">
    <!-- Generator: sketchtool 57 (101010) - https://sketch.com -->
    <title>0DCA18A5-55F3-4B66-9A18-1A1D25C1D280</title>
    <desc>Created with sketchtool.</desc>
    <g id="Homepage" stroke="none" stroke-width="1" fill="none" fill-rule="evenodd">
        <g id="Home-Experiment" transform="translate(-172.000000, -1647.000000)" fill="#663399" fill-rule="nonzero">
            <g id="Check-mark" transform="translate(172.000000, 1647.000000)">
                <path d="M12,0 C5.37096774,0 0,5.37096774 0,12 C0,18.6290323 5.37096774,24 12,24 C18.6290323,24 24,18.6290323 24,12 C24,5.37096774 18.6290323,0 12,0 Z M19.515,9.45048387 L10.6117742,18.3537097 C10.3094739,18.6558119 9.81955836,18.6558119 9.51725806,18.3537097 L4.485,13.3214516 C4.18289779,13.0191513 4.18289779,12.5292358 4.485,12.2269355 L5.57951613,11.1319355 C5.72471066,10.9867078 5.92165661,10.9051169 6.12701613,10.9051169 C6.33237565,10.9051169 6.5293216,10.9867078 6.67451613,11.1319355 L10.0645161,14.5219355 L17.3254839,7.26096774 C17.4706784,7.11574006 17.6676243,7.0341492 17.8729839,7.0341492 C18.0783434,7.0341492 18.2752893,7.11574006 18.4204839,7.26096774 L19.515,8.35596774 C19.8171022,8.65826803 19.8171022,9.14818358 19.515,9.45048387 Z" id="Shape" opacity="0.4"></path>
                <path d="M10.6117742,18.3537097 C10.3094739,18.6558119 9.81955836,18.6558119 9.51725806,18.3537097 L4.485,13.3214516 C4.18289779,13.0191513 4.18289779,12.5292358 4.485,12.2269355 L5.57951613,11.1319355 C5.72471066,10.9867078 5.92165661,10.9051169 6.12701613,10.9051169 C6.33237565,10.9051169 6.5293216,10.9867078 6.67451613,11.1319355 L10.0645161,14.5219355 L17.3254839,7.26096774 C17.4706784,7.11574006 17.6676243,7.0341492 17.8729839,7.0341492 C18.0783434,7.0341492 18.2752893,7.11574006 18.4204839,7.26096774 L19.515,8.35596774 C19.8171022,8.65826803 19.8171022,9.14818358 19.515,9.45048387 L10.6117742,18.3537097 Z" id="Path"></path>
            </g>
        </g>
    </g>
</svg>
